<svg width="58" height="18" viewBox="0 0 58 18" fill="none" xmlns="http://www.w3.org/2000/svg">
<path fill-rule="evenodd" clip-rule="evenodd" d="M5.44772 0.885065C6.55034 -0.750179 9.10386 0.0303111 9.10386 2.00255V9.57022C9.10386 10.6742 8.20894 11.5691 7.10501 11.5691H2.00224C0.401004 11.5691 -0.550249 9.78035 0.344945 8.45274L5.44772 0.885065ZM6.9456 9.2514L6.9456 3.04566C6.9456 2.88837 6.74195 2.82613 6.65401 2.95654L2.46957 9.16228C2.39818 9.26816 2.47404 9.41081 2.60174 9.41081H6.78618C6.87422 9.41081 6.9456 9.33944 6.9456 9.2514ZM9.55069 16.6786C8.44807 18.3138 5.89456 17.5334 5.89456 15.5611L5.89456 13.4955C5.89456 12.8996 6.3777 12.4164 6.97369 12.4164C7.56967 12.4164 8.05282 12.8996 8.05282 13.4955V14.518C8.05282 14.6753 8.25646 14.7375 8.3444 14.6071L12.5288 8.40139C12.6002 8.29551 12.5244 8.15285 12.3967 8.15285L10.8678 8.15285C10.2718 8.15285 9.7887 7.66971 9.7887 7.07372C9.7887 6.47774 10.2718 5.99459 10.8678 5.99459H12.9962C14.5974 5.99459 15.5487 7.78331 14.6535 9.11093L9.55069 16.6786Z" fill="#FF1451"/>
<path d="M22.6967 11.4535L28.08 4.40782V2.59363H19.0844V4.94739H24.4365L18.9985 12.0321V13.8072H28.2361V11.4535H22.6967Z" fill="#FCFAFB"/>
<path d="M32.5022 14.034C33.4463 14.034 34.2265 13.7056 34.8428 13.0565V13.8072H37.4019V5.64335H34.8428V6.39405C34.2421 5.745 33.4619 5.41657 32.4944 5.41657C31.3865 5.41657 30.4503 5.83102 29.6857 6.6521C28.9211 7.47318 28.5388 8.49757 28.5388 9.72528C28.5388 10.953 28.9211 11.9774 29.6857 12.7985C30.4503 13.6195 31.3865 14.034 32.4944 14.034H32.5022ZM32.9625 11.7584C32.4086 11.7584 31.9561 11.5708 31.5972 11.1954C31.2383 10.8201 31.0588 10.3274 31.0588 9.71746C31.0588 9.11534 31.2383 8.63051 31.5972 8.25516C31.9561 7.87981 32.4086 7.69213 32.9625 7.69213C33.5243 7.69213 33.9924 7.87981 34.3591 8.25516C34.7258 8.63051 34.913 9.11534 34.913 9.71746C34.913 10.3196 34.7258 10.8122 34.3591 11.1954C33.9924 11.5786 33.5243 11.7662 32.9547 11.7662L32.9625 11.7584Z" fill="#FCFAFB"/>
<path d="M42.1227 14.034C43.0667 14.034 43.8469 13.7056 44.4633 13.0565V13.8072H47.0223V5.64335H44.4633V6.39405C43.8625 5.745 43.0823 5.41657 42.1149 5.41657C41.007 5.41657 40.0707 5.83102 39.3062 6.6521C38.5416 7.47318 38.1593 8.49757 38.1593 9.72528C38.1593 10.953 38.5416 11.9774 39.3062 12.7985C40.0707 13.6195 41.007 14.034 42.1149 14.034H42.1227ZM42.583 11.7584C42.029 11.7584 41.5765 11.5708 41.2176 11.1954C40.8587 10.8201 40.6793 10.3274 40.6793 9.71746C40.6793 9.11534 40.8587 8.63051 41.2176 8.25516C41.5765 7.87981 42.029 7.69213 42.583 7.69213C43.1447 7.69213 43.6128 7.87981 43.9795 8.25516C44.3462 8.63051 44.5335 9.11534 44.5335 9.71746C44.5335 10.3196 44.3462 10.8122 43.9795 11.1954C43.6128 11.5786 43.1447 11.7662 42.5752 11.7662L42.583 11.7584Z" fill="#FCFAFB"/>
<path d="M53.2203 5.41657C52.2529 5.41657 51.4727 5.745 50.8719 6.39405V5.64335H48.3129V17.1697H50.8719V13.0565C51.4883 13.7056 52.2685 14.034 53.2125 14.034C54.3204 14.034 55.2567 13.6195 56.0212 12.7985C56.7858 11.9774 57.1681 10.953 57.1681 9.72528C57.1681 8.49757 56.7858 7.47318 56.0212 6.6521C55.2567 5.83102 54.3204 5.42439 53.2125 5.42439L53.2203 5.41657ZM52.7444 11.7662C52.1749 11.7662 51.7067 11.5786 51.3401 11.2032C50.9734 10.8279 50.7861 10.3352 50.7861 9.72528C50.7861 9.12316 50.9656 8.63833 51.3323 8.26298C51.6989 7.88763 52.1671 7.69995 52.7366 7.69995C53.2906 7.69995 53.7431 7.88763 54.102 8.26298C54.4608 8.63833 54.6403 9.12316 54.6403 9.72528C54.6403 10.3274 54.4608 10.8201 54.102 11.2032C53.7431 11.5864 53.2906 11.7741 52.7366 11.7741L52.7444 11.7662Z" fill="#FCFAFB"/>
</svg>
